/* XPM */

static const char *qam4[] = {
    "32 32 10 1",
    "  c Gray100",
    ". c Gray70",
    "X c Gray50",
    "= c Gray0",
    "O c #0000FF",
    "o c #B00000",
    "- c #00bf00",
    ": c #00df00",
    "! c #00FF00",
    "+ c none",
    "+=:::+++++++++++++++++++++++++++",
    "==:::::::+++++++++++++++++++++++",
    "==:::::::::::+++++++++++++++++++",
    "==:::::::::::::::+++++++++++++++",
    "==:::::::::::::::::::         ++",
    "==:::::::XXXXX:::::::  =OOO   . ",
    "==::::::XXXXXXX:::::: =OOOO    .",
    "==:!:!:XX:!:!:XX:!:!:=OO=OO    .",
    "==!:!:XX:!:!:!:XX:!:=OO =OO    .",
    "==!!!XX!!!!!!!!!XX!=OO  =OO    .",
    "==!!!XX!!!!!XX!!XX=OOOOOOOOOO  .",
    "==!!!XX!!!!XX!!!XX=OOOOOOOOOO  .",
    "==!!!XX!!!XXX!!!XX!!!   =OO    .",
    "==---==--==-==--==---   =OO    .",
    "==---==--=---==-==---          .",
    "==----==------===----          .",
    "==-----==-----===----          .",
    "==------=======-==---          .",
    "==-------=====-------          .",
    "==-------------------          .",
    "==---------------              .",
    "==-----------                  .",
    "==-------                      .",
    "+=---X..    oooo    oo     oo  .",
    "+++++X..   oo  oo   ooo   ooo  .",
    "+++++X..  oo    oo  oo o o oo  .",
    "+++++X..  oooooooo  oo  o  oo  .",
    "+++++X..  oo    oo  oo     oo  .",
    "+++++X..  oo    oo  oo     oo  .",
    "+++++X..  oo    oo  oo     oo  .",
    "++++++X.                       .",
    "+++++++XXXXXXXXXXXXXXXXXXXXXXX.+"
} ;

